# xmcd
#
# Track frame offsets: 
#        150
#        25220
#        52085
#        78557
#        98995
#        124547
#        150940
#        172097
#        195117
#        217622
#
# Disc length: 3252 seconds
#
# Revision: 0
# Processed by: cddbd v1.5.2PL0 Copyright (c) Steve Scherf et al.
# Submitted via: ExactAudioCopy v1.0b3
#
DISCID=730cb20a
DTITLE=Yen Khoa - Neu Doi Khong Co Anh
DYEAR=1996
DGENRE=
TTITLE0=Sang ngang
TTITLE1=Phan gai thuyen quyen
TTITLE2=Mua nua dem
TTITLE3=Chieu cuoi tuan
TTITLE4=Pho vang em roi
TTITLE5=Giot le dai trang
TTITLE6=Tinh chi dep
TTITLE7=Gia tu
TTITLE8=Neu doi khong co anh
TTITLE9=Con me tinh ai
EXTD=
EXTT0=
EXTT1=
EXTT2=
EXTT3=
EXTT4=
EXTT5=
EXTT6=
EXTT7=
EXTT8=
EXTT9=
PLAYORDER=
